<svg width="" height="" viewBox="0 0 28 28" fill="none" xmlns="http://www.w3.org/2000/svg">
<path d="M6.76697 6.28694C6.82617 6.15701 6.9629 5.9756 7.06535 5.87316L7.06665 5.87189C7.23309 5.71391 7.36821 5.61907 7.58976 5.56738C7.80417 5.51735 8.09845 5.50813 8.58047 5.50813H9.3862L9.40188 4.01333L9.41829 2.44927L9.41862 2.41752L6.83047 6.31641M6.76697 6.28694C6.76689 6.28711 6.76682 6.28727 6.76674 6.28744L6.83047 6.31641M6.76697 6.28694C6.76705 6.28677 6.76713 6.28661 6.76721 6.28644L6.83047 6.31641M6.76697 6.28694C6.71021 6.40698 6.68518 6.53904 6.67162 7.20502C6.65793 7.87722 6.65656 9.1059 6.65656 11.4352V16.3406V16.3469L6.65684 16.3469L7.03966 20.5961L7.03966 20.5962C7.15452 21.8624 7.25846 22.9428 7.33916 23.7191C7.37951 24.1071 7.41409 24.4195 7.44134 24.6412C7.45496 24.752 7.4668 24.8407 7.47668 24.9049C7.48161 24.937 7.48615 24.9637 7.49026 24.9843C7.49372 25.0016 7.49808 25.0213 7.50416 25.0356M6.83047 6.31641C6.73203 6.52422 6.72656 6.77578 6.72656 11.4352V16.3406L7.10938 20.5898C7.33906 23.1219 7.525 24.9102 7.56875 25.0086M7.50416 25.0356C7.50405 25.0353 7.50395 25.0351 7.50384 25.0348L7.56875 25.0086M7.50416 25.0356C7.50436 25.0361 7.50457 25.0365 7.50478 25.037L7.56875 25.0086M7.50416 25.0356C7.62644 25.3377 7.89138 25.6013 8.20061 25.7446M7.56875 25.0086C7.68359 25.293 7.93516 25.5445 8.23047 25.6813M8.23047 25.6813L8.20018 25.7444L8.20061 25.7446M8.23047 25.6813L8.50391 25.8125H14H19.4961L19.7695 25.6813M8.23047 25.6813L8.20106 25.7448C8.20091 25.7447 8.20076 25.7446 8.20061 25.7446M8.20061 25.7446L8.47362 25.8756L8.48798 25.8825H8.50391H14H19.4961H19.512L19.5264 25.8756L19.7989 25.7448L19.7695 25.6813M19.7695 25.6813L19.7998 25.7444L19.7994 25.7446L20.8906 20.5844C20.6609 23.1219 20.475 24.9047 20.4312 25.0086M19.7695 25.6813C20.0648 25.5445 20.3164 25.293 20.4312 25.0086M20.4312 25.0086L20.4958 25.0358C20.4959 25.0354 20.496 25.0351 20.4962 25.0348L20.4312 25.0086ZM21.2331 6.28703C21.2332 6.28723 21.2333 6.28743 21.2333 6.28763L21.1695 6.31641L21.2328 6.28644C21.2329 6.28664 21.233 6.28683 21.2331 6.28703ZM21.2331 6.28703C21.1004 5.99313 20.8587 5.75141 20.5648 5.61862M21.2331 6.28703L20.5648 5.61862M20.5648 5.61862C20.5651 5.61876 20.5654 5.6189 20.5657 5.61905L20.5352 5.68203L20.5639 5.61822C20.5642 5.61835 20.5645 5.61849 20.5648 5.61862ZM18.6138 5.50813L18.6145 5.57739L18.5445 5.57812V5.50813H18.6138ZM8.93047 8.16375H8.89959L8.87878 8.14095L8.76442 8.0157C8.76434 8.01561 8.76425 8.01552 8.76417 8.01543C8.59415 7.83285 8.57716 7.61162 8.68326 7.43614C8.78729 7.26409 9.00142 7.14875 9.26953 7.14875H9.39094V6.83594V6.52312H8.64062C8.26427 6.52312 8.06137 6.52598 7.94 6.54041C7.88015 6.54753 7.84509 6.55699 7.82095 6.56778C7.7982 6.57796 7.78153 6.5909 7.76043 6.612C7.74884 6.62359 7.74331 6.63011 7.73789 6.64136C7.73161 6.65438 7.72401 6.6772 7.71683 6.72221C7.70232 6.81315 7.69207 6.97631 7.68522 7.29C7.67157 7.91519 7.67156 9.1213 7.67156 11.5008V16.3211L8.04862 20.5014L8.04862 20.5015L8.42882 24.6565L8.54912 24.7583L8.54913 24.7583L8.55029 24.7593L8.67261 24.8675H14H19.3274L19.4497 24.7593L19.4497 24.7593L19.4509 24.7583L19.5712 24.6565L19.9514 20.5015L19.9514 20.5014L20.3284 16.3211V11.4953C20.3284 9.11856 20.3284 7.91382 20.3148 7.28932C20.3079 6.97596 20.2977 6.81299 20.2832 6.72214C20.276 6.67717 20.2684 6.65437 20.2621 6.64136C20.2567 6.63012 20.2512 6.62359 20.2396 6.612C20.2185 6.5909 20.2018 6.57796 20.179 6.56778C20.1549 6.55699 20.1198 6.54753 20.06 6.54041C19.9386 6.52598 19.7357 6.52312 19.3594 6.52312H18.6091V6.83594V7.14875H18.7305C18.8564 7.14875 18.9893 7.18146 19.0979 7.23093C19.1523 7.25576 19.2025 7.28562 19.2434 7.31933C19.2835 7.35247 19.3188 7.39269 19.3371 7.43933L19.3373 7.43984C19.4164 7.64674 19.3774 7.88648 19.2267 8.02459C19.2265 8.02477 19.2263 8.02495 19.2261 8.02513L19.1015 8.14433L19.0812 8.16375H19.0531H13.9945H8.93047ZM14 7.14875H17.5941V5.14062V3.1325H14H10.4059V5.14062V7.14875H14Z" fill="#667085" stroke="#667085" stroke-width="0.14"/>
<path d="M8.62531 9.22031V9.19222L8.64473 9.17193L8.76448 9.04673L8.87877 8.92155L8.89959 8.89875H8.93047H13.9945H19.0531H19.0812L19.1015 8.91816L19.2267 9.03792L19.3519 9.15221L19.3747 9.17303V9.20391V12.4359V15.6625V15.6906L19.3553 15.7109L19.2355 15.8361L19.1212 15.9613L19.1004 15.9841H19.0695H14.0055H8.94688H8.91879L8.89849 15.9646L8.77329 15.8449L8.64811 15.7306L8.62531 15.7098V15.6789V12.4469V9.22031ZM14 14.9691H18.3597V12.4414V9.91375H14H9.64031V12.4414V14.9691H14Z" fill="#667085" stroke="#667085" stroke-width="0.14"/>
<path d="M11.5247 17.8594L11.5247 17.8594L11.5241 17.8601C11.4949 17.8907 11.4645 17.9211 11.4198 17.9443C11.3756 17.9672 11.3226 17.9806 11.25 17.9892C11.1073 18.0063 10.864 18.0075 10.407 18.0075C10.1437 18.0075 9.89233 18.002 9.69945 17.9924C9.60314 17.9876 9.52057 17.9817 9.45807 17.9748C9.42693 17.9713 9.39969 17.9676 9.37777 17.9633C9.35987 17.9598 9.33584 17.9544 9.3173 17.9439C9.15574 17.8558 9.09047 17.6748 9.10196 17.5055C9.11349 17.3356 9.20288 17.1592 9.37344 17.0718C9.40787 17.0529 9.45256 17.0401 9.50588 17.0307C9.56072 17.0209 9.62957 17.0139 9.71468 17.009C9.88489 16.9993 10.1263 16.998 10.4629 17.0034L10.463 17.0034C10.9088 17.0116 11.1457 17.017 11.2832 17.037C11.3533 17.0471 11.4047 17.0619 11.4472 17.087C11.4898 17.1123 11.5177 17.1449 11.5438 17.1765L11.5438 17.1765L11.5444 17.1772C11.7022 17.3728 11.6969 17.6745 11.5247 17.8594Z" fill="#667085" stroke="#667085" stroke-width="0.14"/>
<path d="M15.1307 17.8791C15.1001 17.9082 15.0677 17.9341 15.0203 17.9537C14.9746 17.9727 14.9189 17.984 14.8436 17.9914C14.6943 18.0062 14.4465 18.0075 14 18.0075C13.5534 18.0075 13.3056 18.0062 13.1564 17.9914C13.0811 17.984 13.0254 17.9727 12.9796 17.9537C12.9321 17.9341 12.8996 17.908 12.869 17.8789L12.8689 17.8788C12.6062 17.6289 12.7036 17.1683 13.0449 17.0355L13.0449 17.0355L13.0457 17.0352C13.061 17.0295 13.0822 17.027 13.0979 17.0253C13.117 17.0233 13.1416 17.0214 13.1704 17.0198C13.2281 17.0165 13.3055 17.0137 13.3968 17.0117C13.5796 17.0075 13.8196 17.0062 14.0718 17.0089L14.0719 17.0089C14.5177 17.0143 14.7547 17.0184 14.8922 17.0376C14.9623 17.0474 15.0138 17.062 15.0564 17.087C15.0991 17.1122 15.127 17.1449 15.1532 17.1765L15.1535 17.177C15.2365 17.2791 15.2748 17.4122 15.2717 17.5386C15.2686 17.6646 15.2241 17.7923 15.1307 17.8791ZM15.1307 17.8791C15.1308 17.8791 15.1309 17.879 15.131 17.8789L15.0828 17.8281M15.1307 17.8791C15.1306 17.8792 15.1305 17.8793 15.1304 17.8794L15.0828 17.8281M15.0828 17.8281C15.2359 17.6859 15.2414 17.3961 15.0992 17.2211C14.9953 17.0953 14.968 17.0898 14.0711 17.0789C13.568 17.0734 13.114 17.0844 13.0703 17.1008C12.775 17.2156 12.693 17.6148 12.9172 17.8281C13.0265 17.932 13.1031 17.9375 14 17.9375C14.8969 17.9375 14.9734 17.932 15.0828 17.8281Z" fill="#667085" stroke="#667085" stroke-width="0.14"/>
<path d="M16.6152 17.0523L16.6154 17.0522L18.5938 17.1336L18.6255 17.0712C18.6256 17.0712 18.6257 17.0713 18.6257 17.0713C18.7968 17.1586 18.8865 17.3353 18.8981 17.5055C18.9096 17.6748 18.8443 17.8558 18.6827 17.9438C18.6643 17.9544 18.6404 17.9598 18.6226 17.9633C18.6008 17.9675 18.5738 17.9713 18.543 17.9748C18.4811 17.9817 18.3993 17.9876 18.304 17.9924C18.1132 18.002 17.8645 18.0075 17.6039 18.0075C17.1577 18.0075 16.9147 18.0062 16.769 17.99C16.6951 17.9817 16.6406 17.9691 16.5948 17.948C16.5482 17.9265 16.5156 17.8982 16.4838 17.8679C16.36 17.7506 16.3193 17.5769 16.3432 17.4217C16.3672 17.2665 16.4582 17.1158 16.6152 17.0523Z" fill="#667085" stroke="#667085" stroke-width="0.14"/>
<path d="M11.4021 18.9966C11.7024 19.1505 11.7568 19.5288 11.5242 19.774L11.5241 19.7741C11.4949 19.8047 11.4645 19.8351 11.4198 19.8583C11.3756 19.8813 11.3226 19.8946 11.25 19.9033C11.1073 19.9203 10.864 19.9216 10.407 19.9216C10.1437 19.9216 9.89233 19.9161 9.69945 19.9064C9.60314 19.9016 9.52057 19.8957 9.45807 19.8888C9.42693 19.8854 9.39969 19.8816 9.37777 19.8774C9.35987 19.8739 9.33584 19.8685 9.3173 19.8579C9.15574 19.7698 9.09047 19.5888 9.10196 19.4196C9.11351 19.2493 9.20325 19.0725 9.37449 18.9853L9.37449 18.9853L9.37496 18.985C9.41184 18.9666 9.46884 18.9542 9.53143 18.9446C9.59679 18.9346 9.67738 18.9266 9.76739 18.9203C9.94757 18.9078 10.1693 18.9021 10.3903 18.9031C10.6112 18.9042 10.8327 18.9119 11.0123 18.9264C11.102 18.9336 11.1822 18.9425 11.2472 18.9534C11.3088 18.9637 11.3654 18.977 11.4021 18.9966ZM11.4021 18.9966C11.4019 18.9965 11.4016 18.9964 11.4014 18.9963L11.3695 19.0586M11.4021 18.9966C11.4024 18.9968 11.4026 18.9969 11.4028 18.997L11.3695 19.0586M11.3695 19.0586C11.1672 18.9492 9.61408 18.9437 9.40627 19.0477C9.11642 19.1953 9.08908 19.6547 9.35158 19.7969C9.40627 19.8297 9.88205 19.8516 10.407 19.8516C11.3258 19.8516 11.3586 19.8461 11.4735 19.7258C11.6758 19.5125 11.6266 19.1898 11.3695 19.0586Z" fill="#667085" stroke="#667085" stroke-width="0.14"/>
<path d="M15.1307 19.7932C15.1001 19.8223 15.0677 19.8482 15.0201 19.8678C14.9741 19.8868 14.9181 19.8981 14.8422 19.9055C14.6916 19.9203 14.4411 19.9216 13.989 19.9216C13.5398 19.9216 13.2906 19.9203 13.1413 19.9055C13.0661 19.898 13.0105 19.8867 12.9652 19.8676C12.9179 19.8477 12.8862 19.8211 12.8567 19.7917C12.7402 19.6752 12.7089 19.4977 12.7361 19.3419C12.7633 19.1863 12.8528 19.0309 13.0048 18.9668L13.0051 18.9666C13.022 18.9596 13.0443 18.9554 13.0644 18.9523C13.0865 18.949 13.1139 18.9459 13.1453 18.9432C13.2081 18.9378 13.29 18.9333 13.3849 18.9299C13.5749 18.923 13.8194 18.9202 14.0718 18.923L14.0719 18.923C14.5177 18.9284 14.7547 18.9324 14.8922 18.9517C14.9623 18.9615 15.0138 18.976 15.0564 19.0011C15.0991 19.0263 15.127 19.0589 15.1532 19.0906L15.1535 19.091C15.2365 19.1931 15.2748 19.3262 15.2717 19.4527C15.2686 19.5787 15.2241 19.7063 15.1307 19.7932ZM15.1307 19.7932C15.1308 19.7931 15.1309 19.793 15.131 19.7929L15.0828 19.7422L15.1304 19.7935C15.1305 19.7934 15.1306 19.7933 15.1307 19.7932Z" fill="#667085" stroke="#667085" stroke-width="0.14"/>
<path d="M16.6152 18.9664L16.6154 18.9663L18.5938 19.0477L18.6255 18.9853C18.6256 18.9853 18.6257 18.9853 18.6257 18.9854C18.7968 19.0726 18.8865 19.2493 18.8981 19.4196C18.9096 19.5888 18.8443 19.7698 18.6827 19.8579C18.6643 19.8684 18.6404 19.8739 18.6226 19.8773C18.6008 19.8816 18.5738 19.8854 18.543 19.8888C18.4811 19.8957 18.3993 19.9016 18.304 19.9064C18.1132 19.9161 17.8645 19.9216 17.6039 19.9216C17.1577 19.9216 16.9147 19.9203 16.769 19.904C16.6951 19.8958 16.6406 19.8832 16.5948 19.862C16.5482 19.8405 16.5156 19.8123 16.4838 19.782C16.36 19.6647 16.3193 19.491 16.3432 19.3357C16.3672 19.1806 16.4582 19.0298 16.6152 18.9664Z" fill="#667085" stroke="#667085" stroke-width="0.14"/>
<path d="M11.4021 20.9107C11.7024 21.0646 11.7568 21.4429 11.5242 21.688L11.5241 21.6882C11.4949 21.7188 11.4645 21.7492 11.4198 21.7724C11.3756 21.7953 11.3226 21.8087 11.25 21.8174C11.1073 21.8344 10.864 21.8356 10.407 21.8356C10.1437 21.8356 9.89233 21.8301 9.69945 21.8205C9.60314 21.8157 9.52057 21.8098 9.45807 21.8029C9.42693 21.7995 9.39969 21.7957 9.37777 21.7914C9.35987 21.788 9.33584 21.7826 9.3173 21.772C9.15574 21.6839 9.09047 21.5029 9.10196 21.3336C9.11351 21.1633 9.20325 20.9866 9.37449 20.8993L9.37449 20.8993L9.37496 20.8991C9.41184 20.8807 9.46884 20.8682 9.53143 20.8587C9.59679 20.8487 9.67738 20.8406 9.76739 20.8344C9.94757 20.8218 10.1693 20.8162 10.3903 20.8172C10.6112 20.8182 10.8327 20.826 11.0123 20.8404C11.102 20.8476 11.1822 20.8566 11.2472 20.8675C11.3088 20.8778 11.3654 20.8911 11.4021 20.9107ZM11.4021 20.9107C11.4019 20.9106 11.4016 20.9104 11.4014 20.9103L11.3695 20.9727M11.4021 20.9107C11.4024 20.9108 11.4026 20.9109 11.4028 20.9111L11.3695 20.9727M11.3695 20.9727C11.1672 20.8633 9.61408 20.8578 9.40627 20.9617C9.11642 21.1094 9.08908 21.5687 9.35158 21.7109C9.40627 21.7437 9.88205 21.7656 10.407 21.7656C11.3258 21.7656 11.3586 21.7602 11.4735 21.6398C11.6758 21.4266 11.6266 21.1039 11.3695 20.9727Z" fill="#667085" stroke="#667085" stroke-width="0.14"/>
<path d="M13.0048 20.8808L13.0051 20.8807C13.022 20.8736 13.0443 20.8694 13.0644 20.8664C13.0865 20.863 13.1139 20.86 13.1453 20.8573C13.2081 20.8518 13.29 20.8474 13.3849 20.8439C13.5749 20.837 13.8194 20.8343 14.0718 20.837L14.0719 20.837C14.5177 20.8425 14.7547 20.8465 14.8922 20.8657C14.9623 20.8755 15.0138 20.8901 15.0564 20.9152C15.0991 20.9403 15.127 20.973 15.1532 21.0046L15.1532 21.0046L15.1537 21.0053C15.234 21.1048 15.2718 21.2376 15.2711 21.3634C15.2703 21.4887 15.231 21.618 15.1432 21.7057C15.1137 21.7352 15.0821 21.7618 15.0345 21.7817C14.989 21.8008 14.9331 21.8121 14.8572 21.8196C14.7066 21.8343 14.4547 21.8356 14 21.8356C13.5452 21.8356 13.2934 21.8343 13.1428 21.8196C13.0669 21.8121 13.011 21.8008 12.9655 21.7817C12.9179 21.7618 12.8862 21.7352 12.8567 21.7057C12.7402 21.5892 12.7089 21.4117 12.7361 21.2559C12.7633 21.1003 12.8528 20.945 13.0048 20.8808Z" fill="#667085" stroke="#667085" stroke-width="0.14"/>
<path d="M18.625 20.8991L18.625 20.8991C18.5913 20.8822 18.5356 20.8716 18.4761 20.8634C18.4127 20.8547 18.3331 20.8476 18.2434 20.8418C18.0637 20.8302 17.8399 20.824 17.6171 20.8234C17.3943 20.8227 17.1715 20.8275 16.9938 20.838C16.9051 20.8433 16.8267 20.85 16.7647 20.8584C16.7338 20.8626 16.706 20.8673 16.6826 20.8727C16.6608 20.8778 16.6377 20.8845 16.6191 20.8946C16.6189 20.8947 16.6187 20.8949 16.6185 20.895L18.625 20.8991ZM18.625 20.8991L18.6255 20.8993M18.625 20.8991L18.6255 20.8993M18.6255 20.8993C18.7968 20.9866 18.8865 21.1633 18.898 21.3336C18.9095 21.5029 18.8443 21.6839 18.6827 21.772C18.6643 21.7825 18.6404 21.7879 18.6226 21.7914C18.6008 21.7957 18.5738 21.7995 18.5429 21.8029C18.481 21.8098 18.3993 21.8157 18.304 21.8205C18.1132 21.8301 17.8645 21.8356 17.6039 21.8356C17.1577 21.8356 16.9147 21.8344 16.769 21.8181M18.6255 20.8993L16.769 21.8181M16.769 21.8181C16.695 21.8098 16.6405 21.7972 16.5948 21.7761M16.769 21.8181L16.5948 21.7761M16.5948 21.7761C16.5482 21.7546 16.5155 21.7263 16.4838 21.696L16.5948 21.7761Z" fill="#667085" stroke="#667085" stroke-width="0.14"/>
<path d="M11.6013 23.5477L11.6013 23.5477L11.6003 23.5494C11.5403 23.6583 11.4117 23.7178 11.2203 23.7533C11.0255 23.7894 10.7438 23.8044 10.3469 23.8044C9.94003 23.8044 9.66368 23.7883 9.4769 23.7399C9.38245 23.7155 9.3066 23.6818 9.2473 23.6345C9.18713 23.5865 9.14774 23.5273 9.122 23.4583C9.04168 23.2479 9.10025 23.004 9.27317 22.884C9.33732 22.8389 9.4365 22.8182 9.59996 22.806C9.76769 22.7934 10.019 22.7894 10.4016 22.7894C10.8511 22.7894 11.1016 22.792 11.2516 22.8075C11.3271 22.8153 11.3827 22.8268 11.4275 22.8455C11.4745 22.8651 11.5055 22.8908 11.5339 22.9193C11.6092 22.9946 11.6488 23.1065 11.6593 23.2171C11.6699 23.3285 11.6522 23.449 11.6013 23.5477Z" fill="#667085" stroke="#667085" stroke-width="0.14"/>
<path d="M12.7898 23.5486L12.7898 23.5486L12.7893 23.5477C12.7381 23.4484 12.7221 23.3261 12.7334 23.2146C12.7446 23.1042 12.7839 22.9921 12.8567 22.9193C12.8862 22.8898 12.9179 22.8632 12.9655 22.8433C13.011 22.8242 13.0669 22.8129 13.1428 22.8054C13.2934 22.7907 13.5452 22.7894 14 22.7894C14.4547 22.7894 14.7066 22.7907 14.8572 22.8054C14.9331 22.8129 14.989 22.8242 15.0345 22.8433C15.0821 22.8632 15.1138 22.8898 15.1432 22.9193C15.2161 22.9921 15.2554 23.1042 15.2666 23.2146C15.2779 23.3261 15.2619 23.4484 15.2106 23.5477L15.2106 23.5477L15.2102 23.5486C15.1511 23.6593 15.0324 23.7199 14.8478 23.7553C14.6622 23.7908 14.391 23.8044 14 23.8044C13.6089 23.8044 13.3377 23.7908 13.1522 23.7553C12.9676 23.7199 12.8488 23.6593 12.7898 23.5486Z" fill="#667085" stroke="#667085" stroke-width="0.14"/>
<path d="M16.3996 23.5494L16.3996 23.5495L16.3987 23.5477C16.3478 23.449 16.3301 23.3285 16.3407 23.2171C16.3512 23.1065 16.3908 22.9946 16.4661 22.9193C16.4945 22.8909 16.5255 22.8652 16.5722 22.8456C16.6169 22.8268 16.6721 22.8153 16.7469 22.8075C16.8957 22.792 17.1434 22.7894 17.5875 22.7894C17.8508 22.7894 18.1036 22.7949 18.2978 22.8045C18.3948 22.8093 18.478 22.8152 18.541 22.8221C18.5724 22.8255 18.5999 22.8293 18.6219 22.8336C18.6398 22.837 18.664 22.8424 18.6825 22.8529C18.7809 22.9061 18.8443 23.0089 18.8727 23.1187C18.9015 23.2299 18.8972 23.3577 18.8498 23.4715L18.8497 23.4716C18.8218 23.5383 18.7839 23.5962 18.7262 23.6433C18.669 23.6899 18.5968 23.7223 18.5057 23.7455C18.3263 23.791 18.0565 23.8044 17.6422 23.8044C17.2507 23.8044 16.9717 23.7894 16.7783 23.7533C16.5882 23.7178 16.4596 23.6582 16.3996 23.5494ZM17.6422 23.7344C18.4734 23.7344 18.6867 23.6797 18.7852 23.4445L18.6484 22.9141C18.5937 22.8813 18.1125 22.8594 17.5875 22.8594C16.6961 22.8594 16.6141 22.8703 16.5156 22.9688C16.3953 23.0891 16.3734 23.3461 16.4609 23.5156C16.5484 23.6742 16.8602 23.7344 17.6422 23.7344Z" fill="#667085" stroke="#667085" stroke-width="0.14"/>
</svg>
